# xmcd CD database file
#
# Track frame offsets:
#        150
#        12854
#        26193
#        40441
#        57753
#        71198
#        88325
#        100858
#        117193
#        133557
#        147043
#        162307
#
# Disc length: 2390 seconds
#
# Revision: 0
# Processed by: cddbd v1.5.2PL0 Copyright (c) Steve Scherf et al.
# Submitted via: CUERipper 2.1.5
#
DISCID=a709540c
DTITLE=Adam Harvey - The Nashville Tapes
DYEAR=2018
DGENRE=Country
TTITLE0=Less Of A Thinking Man
TTITLE1=I'd Rather Be A Highwayman
TTITLE2=This Lovin' You
TTITLE3=What A Song Can Do
TTITLE4=Never Be Anyone Else But You
TTITLE5=When Willie's Gone
TTITLE6=Solitary Man
TTITLE7=Lucky
TTITLE8=Three Rivers Hotel (w/ Lee Kernaghan)
TTITLE9=Anything You Want Me To
TTITLE10=Those Holden Days
TTITLE11=We'll Have To Drink Our Way Out Of This
EXTD=
EXTT0=
EXTT1=
EXTT2=
EXTT3=
EXTT4=
EXTT5=
EXTT6=
EXTT7=
EXTT8=
EXTT9=
EXTT10=
EXTT11=
PLAYORDER=
